<?xml version="1.0" encoding="utf-8"?>
<!-- Generator: Adobe Illustrator 27.9.3, SVG Export Plug-In . SVG Version: 9.03 Build 53313)  -->
<svg version="1.1" id="Layer_1" xmlns="http://www.w3.org/2000/svg" xmlns:xlink="http://www.w3.org/1999/xlink" x="0px" y="0px"
	 viewBox="0 0 200 200" style="enable-background:new 0 0 200 200;" xml:space="preserve">
<path d="M104.2,28.7c3.5,0.3,6.8,1,9.9,2s6.1,2.5,9,4.4c3,2,6,3.6,9.1,4.8c3.1,1.2,6.3,2.2,9.6,2.9c3.3,0.7,6.6,1.2,10,1.4
	c3.4,0.3,6.8,0.4,10.3,0.4v32.7c0,1.4,0,2.7-0.1,4.1c-0.1,1.4-0.2,2.7-0.5,4.1h-57.3V28.7z M37.9,44.5c3.5,0,6.9-0.1,10.3-0.4
	c3.4-0.3,6.7-0.7,10-1.4c3.3-0.7,6.5-1.6,9.6-2.9c3.1-1.2,6.1-2.9,9.2-4.9c2.9-1.9,5.9-3.4,9-4.3c3.1-1,6.4-1.6,9.9-2v56.8H38.6
	c-0.2-1.4-0.3-2.7-0.4-4.1c-0.1-1.4-0.2-2.7-0.2-4.1V44.5H37.9z M95.9,156.5c-6.1-3.5-12.1-7.4-18-11.8c-5.9-4.3-11.4-9.1-16.3-14.4
	c-5-5.2-9.4-10.9-13.1-17.1c-3.7-6.1-6.5-12.7-8.3-19.7H96v63H95.9z M104.2,93.6h55.8c-1.8,7-4.6,13.5-8.3,19.7
	c-3.7,6.1-8.1,11.8-13.1,17.1c-5,5.2-10.4,10-16.4,14.4c-5.9,4.3-11.9,8.3-18,11.8V93.6z"/>
</svg>
