<svg width="80" height="80" viewBox="0 0 80 80" fill="none" xmlns="http://www.w3.org/2000/svg">
<path d="M70.9979 9.79004C75.9696 9.79004 80 13.8182 80 18.7871V56.793C80 61.7619 75.9696 65.79 70.9979 65.79H9.00209C4.03037 65.79 0 61.7619 0 56.793V18.7871C0 13.8182 4.03037 9.79004 9.00209 9.79004H70.9979ZM70.9979 15.7881H9.00209C7.34485 15.7881 6.00139 17.1308 6.00139 18.7871V56.793C6.00139 58.4493 7.34485 59.792 9.00209 59.792H70.9979C72.6551 59.792 73.9986 58.4493 73.9986 56.793V18.7871C73.9986 17.1308 72.6551 15.7881 70.9979 15.7881ZM19.0044 47.7776H61.0141C62.6714 47.7776 64.0148 49.1203 64.0148 50.7766C64.0148 52.2949 62.886 53.5497 61.4213 53.7482L61.0141 53.7756H19.0044C17.3472 53.7756 16.0037 52.4329 16.0037 50.7766C16.0037 49.2583 17.1326 48.0035 18.5972 47.805L19.0044 47.7776H61.0141H19.0044ZM58.0134 33.7822C60.2231 33.7822 62.0144 35.5724 62.0144 37.7809C62.0144 39.9893 60.2231 41.7795 58.0134 41.7795C55.8038 41.7795 54.0125 39.9893 54.0125 37.7809C54.0125 35.5724 55.8038 33.7822 58.0134 33.7822ZM34.0274 33.7822C36.237 33.7822 38.0283 35.5724 38.0283 37.7809C38.0283 39.9893 36.237 41.7795 34.0274 41.7795C31.8177 41.7795 30.0265 39.9893 30.0265 37.7809C30.0265 35.5724 31.8177 33.7822 34.0274 33.7822ZM22.0246 33.7822C24.2343 33.7822 26.0255 35.5724 26.0255 37.7809C26.0255 39.9893 24.2343 41.7795 22.0246 41.7795C19.815 41.7795 18.0237 39.9893 18.0237 37.7809C18.0237 35.5724 19.815 33.7822 22.0246 33.7822ZM46.0302 33.7822C48.2398 33.7822 50.0311 35.5724 50.0311 37.7809C50.0311 39.9893 48.2398 41.7795 46.0302 41.7795C43.8205 41.7795 42.0292 39.9893 42.0292 37.7809C42.0292 35.5724 43.8205 33.7822 46.0302 33.7822ZM16.0037 21.7861C18.2134 21.7861 20.0046 23.5764 20.0046 25.7848C20.0046 27.9932 18.2134 29.7835 16.0037 29.7835C13.7941 29.7835 12.0028 27.9932 12.0028 25.7848C12.0028 23.5764 13.7941 21.7861 16.0037 21.7861ZM27.987 21.7861C30.1966 21.7861 31.9879 23.5764 31.9879 25.7848C31.9879 27.9932 30.1966 29.7835 27.987 29.7835C25.7773 29.7835 23.9861 27.9932 23.9861 25.7848C23.9861 23.5764 25.7773 21.7861 27.987 21.7861ZM39.9898 21.7861C42.1994 21.7861 43.9907 23.5764 43.9907 25.7848C43.9907 27.9932 42.1994 29.7835 39.9898 29.7835C37.7801 29.7835 35.9888 27.9932 35.9888 25.7848C35.9888 23.5764 37.7801 21.7861 39.9898 21.7861ZM51.9926 21.7861C54.2022 21.7861 55.9935 23.5764 55.9935 25.7848C55.9935 27.9932 54.2022 29.7835 51.9926 29.7835C49.7829 29.7835 47.9916 27.9932 47.9916 25.7848C47.9916 23.5764 49.7829 21.7861 51.9926 21.7861ZM63.9953 21.7861C66.205 21.7861 67.9963 23.5764 67.9963 25.7848C67.9963 27.9932 66.205 29.7835 63.9953 29.7835C61.7857 29.7835 59.9944 27.9932 59.9944 25.7848C59.9944 23.5764 61.7857 21.7861 63.9953 21.7861Z" fill="#171717"/>
</svg>
