<svg width="200" height="200" viewBox="0 0 200 200" fill="none" xmlns="http://www.w3.org/2000/svg">
<path d="M59.375 146.592C56.8785 145.111 54.8891 143.122 53.4082 140.625H39.0625C37.9625 140.625 37.0103 140.223 36.2061 139.419C35.4018 138.615 35 137.663 35 136.562C35 135.462 35.4018 134.51 36.2061 133.706C37.0103 132.902 37.9625 132.5 39.0625 132.5H51.25L51.25 116.25H39.0625C37.9625 116.25 37.0103 115.848 36.2061 115.044C35.4018 114.24 35 113.288 35 112.188C35 111.087 35.4018 110.135 36.2061 109.331C37.0103 108.527 37.9625 108.125 39.0625 108.125H51.25L51.25 91.875H39.0625C37.9625 91.875 37.0103 91.4732 36.2061 90.6689C35.4018 89.8647 35 88.9125 35 87.8125C35 86.7125 35.4018 85.7603 36.2061 84.9561C37.0103 84.1518 37.9625 83.75 39.0625 83.75H51.25L51.25 67.5H39.0625C37.9625 67.5 37.0103 67.0982 36.2061 66.2939C35.4018 65.4897 35 64.5375 35 63.4375C35 62.3375 35.4018 61.3853 36.2061 60.5811C37.0103 59.7768 37.9625 59.375 39.0625 59.375H53.4082C54.8891 56.8785 56.8785 54.8891 59.375 53.4082L59.375 39.0625C59.375 37.9625 59.7768 37.0103 60.5811 36.2061C61.3853 35.4018 62.3375 35 63.4375 35C64.5375 35 65.4897 35.4018 66.2939 36.2061C67.0982 37.0103 67.5 37.9625 67.5 39.0625L67.5 51.25H83.75L83.75 39.0625C83.75 37.9625 84.1518 37.0103 84.9561 36.2061C85.7603 35.4018 86.7125 35 87.8125 35C88.9125 35 89.8647 35.4018 90.6689 36.2061C91.4732 37.0103 91.875 37.9625 91.875 39.0625L91.875 51.25H108.125L108.125 39.0625C108.125 37.9625 108.527 37.0103 109.331 36.2061C110.135 35.4018 111.087 35 112.188 35C113.288 35 114.24 35.4018 115.044 36.2061C115.848 37.0103 116.25 37.9625 116.25 39.0625L116.25 51.25H132.5L132.5 39.0625C132.5 37.9625 132.902 37.0103 133.706 36.2061C134.51 35.4018 135.462 35 136.562 35C137.663 35 138.615 35.4018 139.419 36.2061C140.223 37.0103 140.625 37.9625 140.625 39.0625L140.625 53.4082C143.122 54.8891 145.111 56.8785 146.592 59.375H160.938C162.038 59.375 162.99 59.7768 163.794 60.5811C164.598 61.3853 165 62.3375 165 63.4375C165 64.5375 164.598 65.4897 163.794 66.2939C162.99 67.0982 162.038 67.5 160.938 67.5H148.75L148.75 83.75H160.938C162.038 83.75 162.99 84.1518 163.794 84.9561C164.598 85.7603 165 86.7125 165 87.8125C165 88.9125 164.598 89.8647 163.794 90.6689C162.99 91.4732 162.038 91.875 160.938 91.875H148.75L148.75 108.125H160.938C162.038 108.125 162.99 108.527 163.794 109.331C164.598 110.135 165 111.087 165 112.188C165 113.288 164.598 114.24 163.794 115.044C162.99 115.848 162.038 116.25 160.938 116.25H148.75L148.75 132.5H160.938C162.038 132.5 162.99 132.902 163.794 133.706C164.598 134.51 165 135.462 165 136.562C165 137.663 164.598 138.615 163.794 139.419C162.99 140.223 162.038 140.625 160.938 140.625H146.592C145.111 143.122 143.122 145.111 140.625 146.592L140.625 160.938C140.625 162.038 140.223 162.99 139.419 163.794C138.615 164.598 137.663 165 136.563 165C135.462 165 134.51 164.598 133.706 163.794C132.902 162.99 132.5 162.038 132.5 160.938L132.5 148.75H116.25L116.25 160.938C116.25 162.038 115.848 162.99 115.044 163.794C114.24 164.598 113.288 165 112.188 165C111.087 165 110.135 164.598 109.331 163.794C108.527 162.99 108.125 162.038 108.125 160.938L108.125 148.75H91.875L91.875 160.938C91.875 162.038 91.4732 162.99 90.6689 163.794C89.8647 164.598 88.9125 165 87.8125 165C86.7125 165 85.7603 164.598 84.9561 163.794C84.1518 162.99 83.75 162.038 83.75 160.938L83.75 148.75H67.5L67.5 160.938C67.5 162.038 67.0982 162.99 66.2939 163.794C65.4897 164.598 64.5375 165 63.4375 165C62.3375 165 61.3853 164.598 60.5811 163.794C59.7768 162.99 59.375 162.038 59.375 160.938L59.375 146.592ZM132.5 140.625C133.643 140.625 134.701 140.414 135.674 139.99C136.647 139.567 137.494 138.996 138.213 138.276C138.932 137.557 139.525 136.689 139.99 135.674C140.456 134.658 140.668 133.6 140.625 132.5L140.625 67.5C140.625 66.4 140.414 65.3627 139.99 64.3896C139.567 63.4166 138.996 62.5488 138.276 61.7871C137.557 61.0254 136.689 60.4332 135.674 60.0098C134.658 59.5864 133.6 59.375 132.5 59.375H67.5C66.3574 59.375 65.2993 59.5864 64.3262 60.0098C63.3531 60.4332 62.5063 61.0044 61.7871 61.7236C61.0679 62.4428 60.475 63.3105 60.0098 64.3262C59.5445 65.3418 59.3325 66.4 59.375 67.5L59.375 132.5C59.375 133.643 59.5864 134.701 60.0098 135.674C60.4332 136.647 61.0044 137.515 61.7236 138.276C62.4428 139.038 63.2896 139.609 64.2627 139.99C65.2358 140.371 66.3149 140.582 67.5 140.625H132.5ZM70.2295 87.749C70.2295 87.1568 70.3564 86.6064 70.6104 86.0986C71.9224 83.3057 73.6147 80.7666 75.6885 78.4814C77.7623 76.1963 80.0684 74.2285 82.6074 72.5781C85.1465 70.9277 87.9185 69.6792 90.9229 68.833C93.9272 67.9869 96.9531 67.5425 100 67.5C104.655 67.5 109.098 68.4521 113.33 70.3564C117.562 72.2607 121.244 74.9693 124.375 78.4814L124.375 71.5625C124.375 70.4625 124.777 69.5103 125.581 68.7061C126.385 67.9018 127.337 67.5 128.438 67.5C129.538 67.5 130.49 67.9018 131.294 68.7061C132.098 69.5103 132.5 70.4625 132.5 71.5625L132.5 87.8125C132.5 88.9125 132.098 89.8647 131.294 90.6689C130.49 91.4732 129.538 91.875 128.438 91.875H112.188C111.087 91.875 110.135 91.4732 109.331 90.6689C108.527 89.8647 108.125 88.9125 108.125 87.8125C108.125 86.9238 108.294 86.2046 108.633 85.6543C108.971 85.104 109.458 84.6812 110.093 84.3848C110.728 84.0883 111.383 83.8979 112.061 83.8135C112.738 83.7291 113.5 83.6656 114.346 83.623C115.065 83.623 115.742 83.644 116.377 83.6865C117.012 83.7291 117.604 83.75 118.154 83.75C115.827 81.1265 113.097 79.1162 109.966 77.7197C106.835 76.3232 103.512 75.625 100 75.625C95.2602 75.625 90.9019 76.8945 86.9238 79.4336C85.8238 80.1109 84.85 80.8091 84.0039 81.5283C83.1578 82.2475 82.396 83.0092 81.7188 83.8135C81.0415 84.6177 80.3857 85.5064 79.751 86.4795C79.1162 87.4526 78.524 88.4682 77.9736 89.5264C77.5928 90.2456 77.1059 90.8168 76.5137 91.2402C75.9214 91.6636 75.1807 91.875 74.292 91.875C73.1919 91.875 72.2398 91.4732 71.4355 90.6689C70.6313 89.8647 70.2295 88.8916 70.2295 87.749ZM67.5 128.438L67.5 112.188C67.5 111.087 67.9018 110.135 68.7061 109.331C69.5103 108.527 70.4625 108.125 71.5625 108.125H87.8125C88.9125 108.125 89.8647 108.527 90.6689 109.331C91.4732 110.135 91.875 111.087 91.875 112.188C91.875 113.076 91.7055 113.795 91.3672 114.346C91.0289 114.896 90.542 115.319 89.9072 115.615C89.2725 115.912 88.6167 116.102 87.9395 116.187C87.2622 116.271 86.5004 116.334 85.6543 116.377C84.9351 116.377 84.2578 116.356 83.623 116.313C82.9883 116.271 82.396 116.25 81.8457 116.25C84.1734 118.873 86.9029 120.884 90.0342 122.28C93.1655 123.677 96.4878 124.375 100 124.375C104.655 124.375 108.993 123.105 113.013 120.566C114.071 119.889 115.023 119.191 115.869 118.472C116.715 117.752 117.499 116.991 118.218 116.187C118.937 115.382 119.593 114.494 120.186 113.521C120.778 112.547 121.392 111.51 122.026 110.41C122.831 108.887 124.058 108.125 125.708 108.125C126.808 108.125 127.76 108.527 128.564 109.331C129.369 110.135 129.771 111.087 129.771 112.188C129.771 112.822 129.644 113.394 129.39 113.901C128.12 116.694 126.449 119.233 124.375 121.519C122.301 123.804 119.974 125.771 117.393 127.422C114.811 129.072 112.018 130.321 109.014 131.167C106.009 132.013 103.004 132.457 100 132.5C95.3027 132.5 90.8384 131.569 86.6064 129.707C82.3745 127.845 78.7144 125.116 75.625 121.519L75.625 128.438C75.625 129.538 75.2232 130.49 74.4189 131.294C73.6147 132.098 72.6625 132.5 71.5625 132.5C70.4625 132.5 69.5103 132.098 68.7061 131.294C67.9018 130.49 67.5 129.538 67.5 128.438Z" fill="black"/>
</svg>
