<svg width="120" height="120" viewBox="0 0 120 120" fill="none" xmlns="http://www.w3.org/2000/svg">
<path d="M106.224 30.8994C106.224 33.2762 106.127 35.6852 105.935 38.1263C105.742 40.5675 105.373 42.9604 104.827 45.3051C104.634 46.1081 104.232 46.8469 103.622 47.5214C103.012 48.1959 102.273 48.8223 101.406 49.4004C100.539 49.9786 99.6713 50.4764 98.804 50.894C97.9368 51.3116 97.1177 51.6488 96.3469 51.9058C96.3469 51.9379 96.3951 51.954 96.4914 51.954C97.0053 52.1467 97.5032 52.3555 97.985 52.5803C98.4668 52.8051 98.9004 53.1103 99.2858 53.4957C99.6713 53.8812 99.9764 54.2827 100.201 54.7002C100.426 55.1178 100.539 55.6638 100.539 56.3383C100.539 56.6916 100.49 57.0289 100.394 57.3501C99.9122 59.2452 99.1734 61.3169 98.1777 63.5653C97.182 65.8137 96.0417 68.046 94.7569 70.2623C93.4721 72.4786 92.0428 74.5182 90.4689 76.3812C88.8951 78.2441 87.3372 79.7859 85.7955 81.0064C85.41 81.2955 84.9122 81.5364 84.3019 81.7291C83.6916 81.9218 83.0332 82.0664 82.3265 82.1627C81.6199 82.2591 80.8811 82.3394 80.1103 82.4036C79.3394 82.4679 78.5685 82.4839 77.7976 82.4518C76.9625 82.4518 76.1756 82.4358 75.4368 82.4036C74.6981 82.3715 74.0557 82.3555 73.5096 82.3555L74.3769 83.03H74.425C74.9068 83.3191 75.4208 83.6081 75.9668 83.8972C76.5128 84.1863 77.0428 84.5236 77.5567 84.909C78.0706 85.2944 78.4721 85.7281 78.7612 86.2099C79.0503 86.6917 79.227 87.2377 79.2912 87.848C79.2912 88.394 79.1788 88.8758 78.9539 89.2934C78.7291 89.7109 78.3918 90.1124 77.9422 90.4979C76.1756 91.9433 74.2002 93.2441 72.016 94.4004C69.8319 95.5567 67.6799 96.5525 65.5599 97.3876C62.2516 98.7366 58.7987 99.7805 55.2013 100.519C51.6038 101.258 48.0064 101.643 44.409 101.676C43.3169 101.676 42.1124 101.627 40.7955 101.531C39.4786 101.435 38.1456 101.242 36.7966 100.953C35.4475 100.664 34.1627 100.294 32.9422 99.8448C31.7216 99.3951 30.6456 98.849 29.7141 98.2066C27.1767 99.6199 24.591 100.889 21.9572 102.013C19.3233 103.137 16.5932 104.133 13.7666 105V99.5557C15.9829 98.8169 18.151 97.9979 20.2709 97.0985C22.3908 96.1991 24.4946 95.1713 26.5824 94.015C26.2612 92.5054 26.1006 90.8994 26.1006 89.197C26.1006 85.985 26.5503 82.7891 27.4497 79.6092C28.349 76.4293 29.4893 73.394 30.8704 70.5032C31.8019 68.4797 32.8779 66.3919 34.0985 64.2398C35.3191 62.0878 36.6199 59.9679 38.0011 57.8801C39.3822 55.7923 40.8276 53.7687 42.3373 51.8094C43.8469 49.8501 45.3726 48.0514 46.9143 46.4133C47.8137 45.4497 48.9218 44.9679 50.2388 44.9679C51.0417 44.9679 51.7966 45.1767 52.5032 45.5942C53.2098 46.0118 53.8844 46.5578 54.5268 47.2323C55.1692 47.9069 55.7313 48.5814 56.2131 49.2559C56.6949 49.9304 57.1606 50.6049 57.6103 51.2794L57.6584 51.1831V51.0867C57.7869 50.2516 57.8993 49.4325 57.9957 48.6296C58.0921 47.8266 58.2045 47.0075 58.333 46.1724C58.4293 45.3373 58.5257 44.3897 58.622 43.3298C58.7184 42.2698 58.8951 41.1938 59.152 40.1017C59.409 39.0096 59.6981 37.9818 60.0193 37.0182C60.3405 36.0546 60.8383 35.2516 61.5128 34.6092L61.561 34.561C67.4068 29.5503 73.7987 25.3587 80.7366 21.9861C87.6745 18.6135 94.9497 16.2848 102.562 15C103.301 16.4454 103.911 17.7784 104.393 18.9989C104.875 20.2195 105.244 21.44 105.501 22.6606C105.758 23.8812 105.951 25.1499 106.079 26.4668C106.208 27.7837 106.256 29.2612 106.224 30.8994ZM32.2677 89.197V89.9197C32.2677 90.1445 32.2837 90.3854 32.3158 90.6424C38.4507 86.7559 44.3769 82.1949 50.0942 76.9593C55.8116 71.7238 61.2559 66.1349 66.4272 60.1927C71.5985 54.2505 76.4968 48.1317 81.122 41.8362C85.7473 35.5407 89.9871 29.3737 93.8415 23.3351C88.7987 24.9411 83.8683 27.0931 79.0503 29.7912C74.2323 32.4893 69.8319 35.5728 65.849 39.0418C65.4636 39.8126 65.1906 40.8244 65.03 42.0771C64.8694 43.3298 64.7248 44.7109 64.5963 46.2206C64.4679 47.7302 64.2912 49.2077 64.0664 50.6531C63.8415 52.0985 63.5364 53.4475 63.151 54.7002C62.7655 55.9529 62.1713 56.9325 61.3683 57.6392C60.5653 58.3458 59.5856 58.7313 58.4293 58.7955C57.4978 58.7955 56.6467 58.5546 55.8758 58.0728C55.1049 57.591 54.3983 56.9968 53.7559 56.2902C53.1135 55.5835 52.5193 54.8287 51.9732 54.0257C51.4272 53.2227 50.8972 52.5 50.3833 51.8576C48.3919 54.1381 46.3362 56.788 44.2163 59.8073C42.0964 62.8266 40.1531 65.9904 38.3865 69.2987C36.6199 72.6071 35.1585 75.9636 34.0021 79.3683C32.8458 82.773 32.2677 86.0493 32.2677 89.197ZM98.8522 43.667C99.2055 41.5471 99.4946 39.4272 99.7195 37.3073C99.9443 35.1874 100.057 33.0353 100.057 30.8512C100.057 29.727 100.025 28.6188 99.9604 27.5268C99.8961 26.4347 99.7516 25.3266 99.5267 24.2024C96.8287 28.4101 93.9861 32.682 90.9989 37.0182C88.0118 41.3544 84.864 45.6585 81.5557 49.9304C78.2473 54.2024 74.8426 58.4101 71.3415 62.5535C67.8405 66.697 64.1627 70.6638 60.3083 74.454C56.454 78.2441 52.5353 81.8255 48.5525 85.1981C44.5696 88.5707 40.4261 91.6221 36.1221 94.3522C37.4711 94.8019 38.8362 95.1071 40.2173 95.2677C41.5985 95.4283 42.9957 95.5086 44.409 95.5086C46.6574 95.5086 48.9218 95.3319 51.2023 94.9786C53.4829 94.6253 55.7473 94.1274 57.9957 93.485C60.2441 92.8426 62.4283 92.0396 64.5482 91.076C66.6681 90.1124 68.7077 89.0685 70.667 87.9443C70.121 87.5589 69.5589 87.1253 68.9807 86.6435C68.4026 86.1617 67.8726 85.6317 67.3908 85.0535C66.909 84.4754 66.4914 83.8651 66.1381 83.2227C65.7848 82.5803 65.6242 81.8897 65.6563 81.151C65.6563 79.9946 65.9454 79.0953 66.5235 78.4529C67.1017 77.8105 67.8726 77.3126 68.8362 76.9593C69.7998 76.606 70.8758 76.3812 72.0642 76.2848C73.2527 76.1884 74.4572 76.1403 75.6777 76.1403H79.0985C79.7409 76.1403 80.319 76.1242 80.833 76.0921C81.3469 76.06 81.7966 76.0118 82.182 75.9475C83.4347 74.9197 84.6552 73.667 85.8437 72.1895C87.0321 70.712 88.1402 69.1542 89.1681 67.5161C90.1959 65.8779 91.1113 64.1916 91.9143 62.4572C92.7173 60.7227 93.3758 59.1006 93.8897 57.591C93.2794 57.3983 92.6531 57.1413 92.0107 56.8201C91.3683 56.4989 90.7901 56.1296 90.2762 55.712C89.7623 55.2944 89.3287 54.7805 88.9754 54.1702C88.622 53.56 88.4454 52.9015 88.4454 52.1949C88.4454 51.0064 88.8308 50.0107 89.6017 49.2077C90.3726 48.4047 91.3201 47.682 92.4443 47.0396C93.5685 46.3972 94.7088 45.8191 95.8651 45.3051C97.0214 44.7912 98.0171 44.2452 98.8522 43.667Z" fill="black"/>
</svg>
