<svg width="200" height="200" viewBox="0 0 200 200" fill="none" xmlns="http://www.w3.org/2000/svg">
<mask id="mask0_580_2" style="mask-type:luminance" maskUnits="userSpaceOnUse" x="0" y="23" width="200" height="155">
<path d="M200 23H0V177.1H200V23Z" fill="white"/>
</mask>
<g mask="url(#mask0_580_2)">
<path d="M179.86 35C184.34 35 188 38.64 188 43.14V156.98C188 161.46 184.36 165.12 179.86 165.12H20.14C15.66 165.12 12 161.48 12 156.98V43.14C12 38.66 15.64 35 20.14 35H179.88M179.86 23H20.14C9.02 23 0 32.02 0 43.14V156.98C0 168.1 9.02 177.12 20.14 177.12H179.88C191 177.12 200.02 168.1 200.02 156.98V43.14C200.02 32.02 191 23 179.88 23H179.86Z" fill="black"/>
<path d="M44.5178 55.8657C41.7634 54.1041 38.1024 54.9089 36.3408 57.6635C34.5794 60.4179 35.3842 64.0787 38.1386 65.8403L149.107 136.807C151.861 138.569 155.522 137.764 157.283 135.009C159.045 132.255 158.24 128.594 155.486 126.833L44.5178 55.8657Z" fill="black"/>
<path d="M41.6537 55.4472C40.7429 52.8988 37.9387 51.5716 35.3903 52.4824C32.8421 53.3934 31.5147 56.1976 32.4257 58.7458L42.2611 86.2608C43.1721 88.809 45.9763 90.1364 48.5245 89.2256C51.0729 88.3146 52.4001 85.5104 51.4893 82.962L41.6537 55.4472Z" fill="black"/>
<path d="M37.0191 51.88C34.3129 51.88 32.1191 54.0738 32.1191 56.78C32.1191 59.4862 34.3129 61.68 37.0191 61.68H63.7591C66.4653 61.68 68.6591 59.4862 68.6591 56.78C68.6591 54.0738 66.4653 51.88 63.7591 51.88H37.0191Z" fill="black"/>
<path d="M158.603 142.856C159.514 145.404 162.318 146.731 164.866 145.821C167.415 144.91 168.742 142.105 167.831 139.557L157.996 112.042C157.085 109.494 154.28 108.167 151.732 109.078C149.184 109.988 147.857 112.793 148.767 115.341L158.603 142.856Z" fill="black"/>
<path d="M163.22 146.42C165.926 146.42 168.12 144.226 168.12 141.52C168.12 138.814 165.926 136.62 163.22 136.62H136.48C133.774 136.62 131.58 138.814 131.58 141.52C131.58 144.226 133.774 146.42 136.48 146.42H163.22Z" fill="black"/>
</g>
</svg>
