<svg width="64" height="64" viewBox="0 0 64 64" fill="none" xmlns="http://www.w3.org/2000/svg">
<path d="M0 11.1111C0 4.97461 4.97461 0 11.1111 0H20.8889C22.1162 0 23.1111 0.994923 23.1111 2.22222C23.1111 3.44952 22.1162 4.44444 20.8889 4.44444H11.1111C7.42921 4.44444 4.44444 7.42921 4.44444 11.1111V20.8889C4.44444 22.1162 3.44952 23.1111 2.22222 23.1111C0.994923 23.1111 0 22.1162 0 20.8889V11.1111ZM40.8889 2.22222C40.8889 0.994923 41.8838 0 43.1111 0H52.8889C59.0254 0 64 4.97461 64 11.1111V20.8889C64 22.1162 63.0051 23.1111 61.7778 23.1111C60.5505 23.1111 59.5556 22.1162 59.5556 20.8889V11.1111C59.5556 7.42921 56.5708 4.44444 52.8889 4.44444H43.1111C41.8838 4.44444 40.8889 3.44952 40.8889 2.22222ZM2.22222 40.8889C3.44952 40.8889 4.44444 41.8838 4.44444 43.1111V52.8889C4.44444 56.5708 7.42921 59.5556 11.1111 59.5556H20.8889C22.1162 59.5556 23.1111 60.5505 23.1111 61.7778C23.1111 63.0051 22.1162 64 20.8889 64H11.1111C4.97461 64 0 59.0254 0 52.8889V43.1111C0 41.8838 0.994923 40.8889 2.22222 40.8889ZM61.7778 40.8889C63.0051 40.8889 64 41.8838 64 43.1111V52.8889C64 59.0254 59.0254 64 52.8889 64H43.1111C41.8838 64 40.8889 63.0051 40.8889 61.7778C40.8889 60.5505 41.8838 59.5556 43.1111 59.5556H52.8889C56.5708 59.5556 59.5556 56.5708 59.5556 52.8889V43.1111C59.5556 41.8838 60.5505 40.8889 61.7778 40.8889ZM37.3333 32.8889C37.3333 29.9434 34.9455 27.5556 32 27.5556C29.0545 27.5556 26.6667 29.9434 26.6667 32.8889C26.6667 35.8344 29.0545 38.2222 32 38.2222C34.9455 38.2222 37.3333 35.8344 37.3333 32.8889ZM38.8707 17.0905C38.1523 15.8676 36.84 15.1165 35.4217 15.1165H28.662C27.2716 15.1165 25.9809 15.8386 25.2533 17.0235L23.6985 19.5556H20C16.809 19.5556 14.2222 22.1424 14.2222 25.3333V42.2222C14.2222 45.4132 16.809 48 20 48H44C47.191 48 49.7778 45.4132 49.7778 42.2222V25.3333C49.7778 22.1424 47.191 19.5556 44 19.5556H40.3187L38.8707 17.0905ZM24 32.8889C24 28.4706 27.5817 24.8889 32 24.8889C36.4183 24.8889 40 28.4706 40 32.8889C40 37.3072 36.4183 40.8889 32 40.8889C27.5817 40.8889 24 37.3072 24 32.8889Z" fill="#00061A"/>
</svg>
