<svg width="300" height="300" viewBox="0 0 200 200" fill="none" xmlns="http://www.w3.org/2000/svg">
<g clip-path="url(#clip0_273_48)">
<path fill-rule="evenodd" clip-rule="evenodd" d="M13.1933 52.8255C13.1933 46.8635 18.0265 42.0303 23.9885 42.0303H146.575C152.537 42.0303 157.37 46.8635 157.37 52.8255V175.412C157.37 181.374 152.537 186.207 146.575 186.207H137.331V193.553C137.331 196.783 134.714 199.4 131.484 199.4C128.255 199.4 125.637 196.783 125.637 193.553V186.207H106.447V193.553C106.447 196.783 103.829 199.4 100.6 199.4C97.3703 199.4 94.7524 196.783 94.7524 193.553V186.207H75.5621V193.553C75.5621 196.783 72.9443 199.4 69.715 199.4C66.4858 199.4 63.868 196.783 63.868 193.553V186.207H44.6777V193.553C44.6777 196.783 42.0598 199.4 38.8306 199.4C35.6013 199.4 32.9835 196.783 32.9835 193.553V186.207H23.9885C18.0265 186.207 13.1933 181.374 13.1933 175.412V167.616H5.84708C2.61783 167.616 0 164.998 0 161.769C0 158.54 2.61783 155.922 5.84708 155.922H13.1933V136.732H5.84708C2.61783 136.732 0 134.114 0 130.885C0 127.655 2.61783 125.037 5.84708 125.037H13.1933V105.847H5.84708C2.61783 105.847 0 103.229 0 100C0 96.7709 2.61783 94.153 5.84708 94.153H13.1933V74.9626H5.84708C2.61783 74.9626 0 72.3447 0 69.1155C0 65.8862 2.61783 63.2684 5.84708 63.2684H13.1933V52.8255Z" fill="black"/>
<path fill-rule="evenodd" clip-rule="evenodd" d="M63.8681 12.2938V5.84708C63.8681 2.61783 66.4859 1.94193e-06 69.7151 0C72.9444 0 75.5622 2.61783 75.5622 5.84708V12.2938H94.7525V5.84708C94.7525 2.61783 97.3704 1.94193e-06 100.6 0C103.829 0 106.447 2.61783 106.447 5.84708V12.2938H125.637V5.84708C125.637 2.61783 128.255 1.94193e-06 131.484 0C134.714 0 137.331 2.61783 137.331 5.84708V12.2938H156.522V5.84708C156.522 2.61783 159.14 1.94193e-06 162.369 0C165.598 0 168.216 2.61783 168.216 5.84708V12.2938H176.311C182.273 12.2938 187.107 17.127 187.107 23.0891V32.6837H194.153C197.382 32.6837 200 35.3015 200 38.5308C200 41.76 197.382 44.3779 194.153 44.3779H187.107V63.5682H194.153C197.382 63.5682 200 66.186 200 69.4153C200 72.6445 197.382 75.2623 194.153 75.2623H187.107V94.4528H194.153C197.382 94.4528 200 97.0706 200 100.3C200 103.529 197.382 106.147 194.153 106.147H187.107V125.337H194.153C197.382 125.337 200 127.955 200 131.184C200 134.414 197.382 137.031 194.153 137.031H187.107V145.675C187.107 151.637 182.273 156.47 176.311 156.47H169.385V52.8255C169.385 40.2279 159.172 30.0156 146.575 30.0156H42.9299V23.0891C42.9299 17.127 47.7631 12.2938 53.7252 12.2938H63.8681ZM157.37 156.47H53.7252C47.7631 156.47 42.9299 151.637 42.9299 145.675V42.0303H146.575C152.537 42.0303 157.37 46.8635 157.37 52.8255V156.47Z" fill="black"/>
<path d="M140.2 161.622H135.563V151.446C135.563 149.853 135.278 148.661 134.708 147.869C134.138 147.067 133.278 146.666 132.128 146.666C130.978 146.666 130.034 147.104 129.295 147.98C128.557 148.845 128.188 149.942 128.188 151.272V161.622H123.551V143.47H128.188V146.397H128.267C128.931 145.279 129.754 144.44 130.736 143.881C131.717 143.322 132.851 143.042 134.138 143.042C136.143 143.042 137.652 143.67 138.665 144.926C139.688 146.181 140.2 148.049 140.2 150.528V161.622Z" fill="white"/>
<path d="M109.718 162.049C106.806 162.049 104.506 161.2 102.817 159.501C101.129 157.803 100.291 155.519 100.301 152.649C100.301 149.642 101.172 147.289 102.912 145.59C104.664 143.892 107.033 143.042 110.018 143.042C112.92 143.042 115.194 143.886 116.839 145.574C118.485 147.252 119.308 149.515 119.308 152.364C119.308 155.329 118.448 157.687 116.729 159.438C115.009 161.179 112.672 162.049 109.718 162.049ZM109.892 158.425C111.432 158.425 112.598 157.919 113.389 156.906C114.181 155.893 114.576 154.411 114.576 152.459C114.576 150.56 114.175 149.119 113.374 148.138C112.582 147.157 111.416 146.666 109.876 146.666C108.357 146.666 107.164 147.189 106.299 148.233C105.445 149.267 105.017 150.718 105.017 152.585C105.017 154.474 105.439 155.919 106.283 156.922C107.127 157.924 108.33 158.425 109.892 158.425Z" fill="white"/>
<path d="M93.7801 141.919C92.9782 141.919 92.3135 141.692 91.786 141.238C91.269 140.784 91.0105 140.22 91.0105 139.545C91.0105 138.859 91.269 138.294 91.786 137.851C92.3135 137.408 92.9782 137.187 93.7801 137.187C94.603 137.187 95.273 137.408 95.79 137.851C96.307 138.294 96.5655 138.859 96.5655 139.545C96.5655 140.23 96.307 140.8 95.79 141.254C95.273 141.697 94.603 141.919 93.7801 141.919ZM96.0749 161.622H91.422V143.47H96.0749V161.622Z" fill="white"/>
<path d="M81.4985 161.622V137.63H86.1356V161.622H81.4985Z" fill="white"/>
<path d="M71.6064 161.622V137.63H76.2435V161.622H71.6064Z" fill="white"/>
<path d="M64.1041 141.919C63.3022 141.919 62.6375 141.692 62.11 141.238C61.593 140.784 61.3345 140.22 61.3345 139.545C61.3345 138.859 61.593 138.294 62.11 137.851C62.6375 137.408 63.3022 137.187 64.1041 137.187C64.927 137.187 65.597 137.408 66.114 137.851C66.631 138.294 66.8895 138.859 66.8895 139.545C66.8895 140.23 66.631 140.8 66.114 141.254C65.597 141.697 64.927 141.919 64.1041 141.919ZM66.3988 161.622H61.746V143.47H66.3988V161.622Z" fill="white"/>
<path d="M57.6147 147.474C57.3404 147.368 57.0819 147.3 56.8392 147.268C56.5965 147.226 56.3117 147.205 55.9846 147.205C54.6446 147.205 53.5948 147.706 52.8352 148.708C52.0861 149.71 51.7115 151.071 51.7115 152.791V161.622H47.0745V143.47H51.7115V146.967H51.7907C52.2127 145.712 52.8352 144.762 53.6582 144.118C54.4811 143.475 55.4518 143.153 56.5702 143.153C56.8867 143.153 57.1768 143.174 57.4406 143.216C57.7149 143.248 58.0262 143.311 58.3744 143.406L57.6147 147.474Z" fill="white"/>
<path d="M43.4024 161.306C42.8854 161.527 42.3156 161.701 41.6932 161.828C41.0812 161.954 40.4482 162.018 39.794 162.018C37.9476 162.018 36.5496 161.559 35.6001 160.641C34.6505 159.712 34.1757 158.341 34.1757 156.526V146.935H31.1846V143.47H34.1757V140.463L38.8128 139.117V143.47H43.07V146.935H38.8128V156.21C38.8128 157.043 38.9658 157.65 39.2717 158.03C39.5883 158.399 40.0631 158.584 40.6961 158.584C41.0232 158.584 41.3344 158.541 41.6298 158.457C41.9253 158.362 42.2049 158.246 42.4686 158.109L43.4024 161.306Z" fill="white"/>
<path d="M88.8511 121.324L93.989 114.624C95.8798 116.405 97.7705 117.707 99.6613 118.529C101.579 119.351 103.662 119.762 105.909 119.762C109.307 119.762 112.033 118.776 114.089 116.803C116.144 114.802 117.171 112.226 117.171 109.075C117.171 105.595 116.007 102.964 113.678 101.183C111.376 99.3747 107.978 98.4704 103.484 98.4704C101.922 98.4704 100.237 98.5252 98.4282 98.6348C96.6196 98.7445 94.8796 98.8952 93.208 99.087L95.3043 67.7661H124.652V76.2334H103.32L102.292 90.6197C103.278 90.5649 104.237 90.5238 105.169 90.4964C106.128 90.4415 106.991 90.4141 107.759 90.4141C113.869 90.4141 118.665 92.0035 122.145 95.1822C125.625 98.3334 127.365 102.69 127.365 108.253C127.365 113.98 125.447 118.666 121.611 122.31C117.774 125.928 112.664 127.736 106.279 127.736C102.744 127.736 99.4695 127.161 96.4552 126.01C93.4684 124.831 90.9337 123.27 88.8511 121.324Z" fill="white"/>
<path d="M78.3217 67.7661V105.746H85.0627V113.802H78.3217V126.709H68.6624V113.802H43.1782V105.664C47.8092 100.238 52.495 94.0861 57.2356 87.2081C62.0036 80.3027 65.7029 73.822 68.3336 67.7661H78.3217ZM52.6731 105.746H68.6624V81.4536C65.8674 86.7148 63.086 91.3184 60.3184 95.2644C57.5782 99.2103 55.0297 102.704 52.6731 105.746Z" fill="white"/>
</g>
<defs>
<clipPath id="clip0_273_48">
<rect width="200" height="200" fill="white"/>
</clipPath>
</defs>
</svg>
