<svg width="120" height="120" viewBox="0 0 120 120" fill="none" xmlns="http://www.w3.org/2000/svg">
<path d="M10.0126 79.2484C7.79659 79.2484 6 81.0953 6 83.3735C6 85.4619 7.50981 87.1878 9.46851 87.4612L10.0126 87.4986L35.4227 87.4975V79.2473L10.0126 79.2484ZM102.3 43.4987H94.2785L94.2744 25.6252C94.2744 24.8657 93.6756 24.2502 92.9369 24.2502H26.0599C25.321 24.2502 24.7224 24.8657 24.7224 25.6252V66.8775C24.7224 67.6371 25.321 68.2525 26.0599 68.2525H35.4227V76.5027H26.0599C20.889 76.5027 16.6971 72.1934 16.6971 66.8775V25.6252C16.6971 20.3093 20.889 16 26.0599 16H92.9369C98.1078 16 102.3 20.3093 102.3 25.6252V43.4987ZM82.2366 81.9995C84.4527 81.9995 86.2492 83.8465 86.2492 86.1246C86.2492 88.4028 84.4527 90.2497 82.2366 90.2497H68.8612C66.6451 90.2497 64.8486 88.4028 64.8486 86.1246C64.8486 83.8465 66.6451 81.9995 68.8612 81.9995H82.2366ZM100.962 48.9988C107.61 48.9988 113 54.5396 113 61.3741V91.6247C113 98.4592 107.61 104 100.962 104H52.8107C46.1626 104 40.7728 98.4592 40.7728 91.6247V61.3741C40.7728 54.5396 46.1626 48.9988 52.8107 48.9988H100.962ZM104.975 61.3741C104.975 59.0959 103.178 57.249 100.962 57.249H52.8107C50.5947 57.249 48.7981 59.0959 48.7981 61.3741V91.6247C48.7981 93.9029 50.5947 95.7498 52.8107 95.7498H100.962C103.178 95.7498 104.975 93.9029 104.975 91.6247V61.3741Z" fill="black"/>
</svg>
