<svg width="80" height="80" viewBox="0 0 80 80" fill="none" xmlns="http://www.w3.org/2000/svg">
<g clip-path="url(#clip0_5907_85895)">
<path d="M29.1019 15.7954C29.0384 15.3171 29.0056 14.829 29.0056 14.3333C29.0056 8.25818 33.9305 3.33331 40.0056 3.33331C46.0807 3.33331 51.0056 8.25818 51.0056 14.3333C51.0056 14.8291 50.9728 15.3173 50.9092 15.7957L61.4563 11.3187C65.6479 9.53953 70.5052 11.4814 72.315 15.6598C74.131 19.8526 72.1904 24.7066 67.9845 26.4919L54.6815 32.1387V36.9687C52.7464 37.4249 50.9024 38.117 49.1815 39.0129V31.532C49.1815 29.6928 50.281 28.0317 51.974 27.313L65.8355 21.4292C67.2309 20.8368 67.8705 19.2368 67.268 17.8458C66.6593 16.4403 65.0152 15.783 63.6054 16.3815L45.3784 24.1184C44.7935 24.3666 44.1957 24.5726 43.5894 24.7363C42.466 25.1232 41.2603 25.3333 40.0056 25.3333C38.7501 25.3333 37.5437 25.123 36.4198 24.7356C35.8144 24.572 35.2174 24.3663 34.6333 24.1184L16.4064 16.3815C14.9965 15.783 13.3525 16.4403 12.7437 17.8458C12.1412 19.2368 12.7809 20.8368 14.1763 21.4292L28.0557 27.3206C29.7487 28.0393 30.8482 29.7004 30.8482 31.5396V45.8716C30.8482 46.3794 30.7638 46.8837 30.5985 47.3638L23.6589 67.5177C23.1645 68.9537 23.9277 70.5187 25.3638 71.0132C26.7998 71.5077 28.3648 70.7444 28.8593 69.3083L36.5898 46.8573C37.4019 44.4967 40.0413 43.8542 41.8567 44.9147C38.4111 49.0477 36.3382 54.3651 36.3382 60.1666C36.3382 61.3735 36.4279 62.5595 36.601 63.7182L34.0596 71.099C32.5762 75.4071 27.8813 77.6969 23.5732 76.2135C19.2651 74.7301 16.9752 70.0352 18.4586 65.7271L25.3482 45.7182V32.1463L12.0273 26.4919C7.82132 24.7066 5.88077 19.8526 7.6968 15.6598C9.50658 11.4814 14.3639 9.53953 18.5554 11.3187L29.1019 15.7954ZM34.5056 14.3333C34.5056 16.6843 35.9806 18.6907 38.0557 19.4777C39.3364 19.7892 40.6738 19.7893 41.9545 19.478C44.0301 18.6913 45.5056 16.6846 45.5056 14.3333C45.5056 11.2957 43.0432 8.83331 40.0056 8.83331C36.968 8.83331 34.5056 11.2957 34.5056 14.3333ZM80.3382 60.1666C80.3382 71.3044 71.3093 80.3333 60.1715 80.3333C49.0338 80.3333 40.0049 71.3044 40.0049 60.1666C40.0049 49.0289 49.0338 40 60.1715 40C71.3093 40 80.3382 49.0289 80.3382 60.1666ZM72.4679 51.537C71.7519 50.821 70.5911 50.821 69.8752 51.537L56.5049 64.9073L50.4679 58.8703C49.7519 58.1543 48.5911 58.1543 47.8752 58.8703C47.1592 59.5862 47.1592 60.747 47.8752 61.463L55.2085 68.7963C55.9245 69.5123 57.0853 69.5123 57.8012 68.7963L72.4679 54.1297C73.1839 53.4137 73.1839 52.2529 72.4679 51.537Z" fill="#171717"/>
</g>
<defs>
<clipPath id="clip0_5907_85895">
<rect width="80" height="80" fill="white"/>
</clipPath>
</defs>
</svg>
