<svg width="200" height="200" viewBox="0 0 200 200" fill="none" xmlns="http://www.w3.org/2000/svg">
<g clip-path="url(#clip0_625_2)">
<path d="M0 125V24.5117C0 21.2565 0.651042 18.1641 1.95312 15.2344C3.25521 12.3047 5.04557 9.70052 7.32422 7.42188C9.60286 5.14323 12.207 3.35286 15.1367 2.05078C18.0664 0.748698 21.1914 0.0651042 24.5117 0H175.488C178.743 0 181.836 0.651042 184.766 1.95312C187.695 3.25521 190.299 5.04557 192.578 7.32422C194.857 9.60286 196.647 12.207 197.949 15.1367C199.251 18.0664 199.935 21.1914 200 24.5117V114.941C198.698 111.426 196.973 108.171 194.824 105.176C192.676 102.181 190.234 99.4466 187.5 96.9727V25C187.5 23.3073 187.174 21.7122 186.523 20.2148C185.872 18.7174 184.993 17.3828 183.887 16.2109C182.78 15.0391 181.445 14.1276 179.883 13.4766C178.32 12.8255 176.693 12.5 175 12.5H25C23.2422 12.5 21.6146 12.8255 20.1172 13.4766C18.6198 14.1276 17.3177 15.0065 16.2109 16.1133C15.1042 17.2201 14.1927 18.5547 13.4766 20.1172C12.7604 21.6797 12.4349 23.3073 12.5 25V125C12.5 126.497 12.7604 127.93 13.2812 129.297C13.8021 130.664 14.5182 131.901 15.4297 133.008C16.3411 134.115 17.4154 135.026 18.6523 135.742C19.8893 136.458 21.2891 136.979 22.8516 137.305C22.526 138.411 22.2982 139.486 22.168 140.527C22.0378 141.569 21.9401 142.676 21.875 143.848C21.875 145.931 22.168 147.949 22.7539 149.902C19.5638 149.642 16.6016 148.796 13.8672 147.363C11.1328 145.931 8.72396 144.108 6.64062 141.895C4.55729 139.681 2.92969 137.109 1.75781 134.18C0.585938 131.25 0 128.19 0 125ZM50 81.25C50 73.5026 51.4648 66.2109 54.3945 59.375C57.3242 52.5391 61.3607 46.582 66.5039 41.5039C71.6471 36.4258 77.6042 32.4219 84.375 29.4922C91.1458 26.5625 98.4375 25.0651 106.25 25C111.393 25 116.341 25.651 121.094 26.9531C125.846 28.2552 130.339 30.1432 134.57 32.6172C138.802 35.0911 142.611 38.0534 145.996 41.5039C149.382 44.9544 152.311 48.763 154.785 52.9297C157.259 57.0964 159.147 61.556 160.449 66.3086C161.751 71.0612 162.435 76.0417 162.5 81.25V83.3008C162.5 83.9518 162.435 84.668 162.305 85.4492L150 83.3008V80.4688C150 74.5443 148.828 68.9779 146.484 63.7695C144.141 58.5612 140.951 54.0039 136.914 50.0977C132.878 46.1914 128.223 43.1315 122.949 40.918C117.676 38.7044 112.109 37.5651 106.25 37.5C100.456 37.5 94.9219 38.6068 89.6484 40.8203C84.375 43.0339 79.7201 46.1263 75.6836 50.0977C71.6471 54.069 68.457 58.6263 66.1133 63.7695C63.7695 68.9128 62.5651 74.4792 62.5 80.4688C62.5 84.4401 62.9232 88.1836 63.7695 91.6992C64.6159 95.2148 65.9831 98.763 67.8711 102.344H66.8945C62.8581 102.344 58.8216 102.897 54.7852 104.004C51.5951 96.7122 50 89.1276 50 81.25ZM125.977 199.805C123.242 199.805 120.605 199.414 118.066 198.633C115.527 197.852 113.184 196.745 111.035 195.312C108.887 193.88 106.868 192.22 104.98 190.332C103.092 188.444 101.432 186.361 100 184.082C97.1354 179.59 93.9453 175.553 90.4297 171.973C86.9141 168.392 82.9427 165.072 78.5156 162.012C75.651 160.059 72.819 158.431 70.0195 157.129C67.2201 155.827 64.388 154.753 61.5234 153.906C58.6589 153.06 55.6966 152.311 52.6367 151.66C49.5768 151.009 46.3867 150.456 43.0664 150C41.3737 149.74 40.0391 149.056 39.0625 147.949C38.0859 146.842 37.5651 145.443 37.5 143.75C37.5 143.359 37.5651 142.839 37.6953 142.188C38.5417 138.411 39.9089 135.059 41.7969 132.129C43.6849 129.199 45.9635 126.725 48.6328 124.707C51.3021 122.689 54.2969 121.159 57.6172 120.117C60.9375 119.076 64.5508 118.555 68.457 118.555C71.7122 118.555 74.9023 118.848 78.0273 119.434C81.1523 120.02 84.3099 120.833 87.5 121.875V68.75C87.5 66.2109 87.9883 63.8021 88.9648 61.5234C89.9414 59.2448 91.276 57.2591 92.9688 55.5664C94.6615 53.8737 96.6797 52.5065 99.0234 51.4648C101.367 50.4232 103.776 49.9349 106.25 50C108.789 50 111.198 50.4883 113.477 51.4648C115.755 52.4414 117.741 53.776 119.434 55.4688C121.126 57.1615 122.493 59.1797 123.535 61.5234C124.577 63.8672 125.065 66.276 125 68.75V94.7266L161.719 101.172C165.43 101.823 168.848 103.092 171.973 104.98C175.098 106.868 177.832 109.18 180.176 111.914C182.52 114.648 184.342 117.708 185.645 121.094C186.947 124.479 187.598 128.092 187.598 131.934C187.598 135.579 186.947 139.193 185.645 142.773L173.34 176.172C171.387 181.445 168.294 185.84 164.062 189.355C159.831 192.871 154.948 195.117 149.414 196.094L130.371 199.414C129.069 199.674 127.604 199.805 125.977 199.805ZM175.098 132.031C175.098 129.753 174.707 127.604 173.926 125.586C173.145 123.568 172.07 121.712 170.703 120.02C169.336 118.327 167.708 116.927 165.82 115.82C163.932 114.714 161.849 113.932 159.57 113.477L117.676 106.152C116.178 105.892 114.941 105.176 113.965 104.004C112.988 102.832 112.5 101.497 112.5 100V68.75C112.5 67.0573 111.882 65.5924 110.645 64.3555C109.408 63.1185 107.943 62.5 106.25 62.5C104.557 62.5 103.092 63.1185 101.855 64.3555C100.618 65.5924 100 67.0573 100 68.75V131.25C100 133.008 99.4141 134.473 98.2422 135.645C97.0703 136.816 95.5729 137.435 93.75 137.5C93.1641 137.5 92.6758 137.467 92.2852 137.402C91.8945 137.337 91.4388 137.142 90.918 136.816C87.4023 135.189 83.8216 133.822 80.1758 132.715C76.5299 131.608 72.7214 131.055 68.75 131.055C65.2995 131.055 62.207 131.608 59.4727 132.715C56.7383 133.822 54.3945 135.84 52.4414 138.77C64.9414 141.048 76.0091 145.378 85.6445 151.758C95.2799 158.138 103.581 166.699 110.547 177.441C111.393 178.743 112.37 179.98 113.477 181.152C114.583 182.324 115.82 183.366 117.188 184.277C118.555 185.189 119.987 185.905 121.484 186.426C122.982 186.947 124.544 187.24 126.172 187.305H127.246C127.637 187.305 127.995 187.24 128.32 187.109L147.266 183.789C150.586 183.203 153.516 181.836 156.055 179.688C158.594 177.539 160.449 174.902 161.621 171.777L173.926 138.477C174.707 136.458 175.098 134.31 175.098 132.031Z" fill="black"/>
</g>
<defs>
<clipPath id="clip0_625_2">
<rect width="200" height="200" fill="white"/>
</clipPath>
</defs>
</svg>
