<svg width="120" height="120" viewBox="0 0 120 120" fill="none" xmlns="http://www.w3.org/2000/svg">
<g clip-path="url(#clip0_331_236)">
<path d="M59.5703 101.428C40.4258 101.428 21.2148 91.2129 11.2148 74.7129C10.4297 73.498 10 72.1426 10 70.7129C10 66.6426 13.3555 63.3574 17.3555 63.3574C20 63.3574 22.1406 64.7168 23.6406 66.8574C32.6406 79.7871 44.4258 86.7168 60.5 86.7168C75.7148 86.7168 87.8555 79.1465 96.3555 66.8574C97.7852 64.7871 99.7109 63.3574 102.355 63.3574C106.57 63.3574 110 66.2871 110 70.7129C110 72.1426 109.57 73.2832 108.855 74.498C106.57 78.6426 103.215 82.2832 99.7852 85.5684C88.8555 95.9277 74.5703 101.424 59.5703 101.424V101.428ZM45 30.2871C45 36.6465 39.7852 42.002 33.3555 42.002C26.9258 42.002 21.7109 36.7871 21.7109 30.3574C21.7109 23.9277 26.8594 18.5723 33.2852 18.5723C39.7109 18.5723 45 23.8574 45 30.2871ZM75 30.2871C75 23.7871 80.2148 18.5723 86.7148 18.5723C93.2148 18.5723 98.2852 23.8574 98.2852 30.2871C98.2852 36.7168 93.0703 42.002 86.6406 42.002C80.2109 42.002 74.9961 36.7168 74.9961 30.2871H75Z" fill="black"/>
</g>
<defs>
<clipPath id="clip0_331_236">
<rect width="100" height="82.8555" fill="white" transform="translate(10 18.5723)"/>
</clipPath>
</defs>
</svg>
